<ttFont>
<head>
    <!-- Most of this table will be recalculated by the compiler -->
    <tableVersion value="1.0"/>
    <fontRevision value="0.84999"/>
    <checkSumAdjustment value="0x72fc21a1"/>
    <magicNumber value="0x5f0f3cf5"/>
    <flags value="00000000 00000011"/>
    <unitsPerEm value="1000"/>
    <created value="Wed Sep  1 18:35:58 2021"/>
    <modified value="Wed Sep  1 18:35:58 2021"/>
    <xMin value="-151"/>
    <yMin value="-216"/>
    <xMax value="724"/>
    <yMax value="1024"/>
    <macStyle value="00000000 00000000"/>
    <lowestRecPPEM value="7"/>
    <fontDirectionHint value="2"/>
    <indexToLocFormat value="0"/>
    <glyphDataFormat value="0"/>
  </head>
          <CharString index="0">
            108 vstem
            return
          </CharString>
          <CharString index="1">
            800 rmoveto
            return
          </CharString>
          <CharString index="2">
            vstem
            375 return
          </CharString>
          <CharString index="3">
            848 rmoveto
            return
          </CharString>
          <CharString index="4">
            60 35 33 57 57 -35 33 -60 return
          </CharString>
          <CharString index="5">
            599 rmoveto
            -98 return
          </CharString>
          <CharString index="6">
            94 186 94 hstem
            90 570 vstem
            90 return
          </CharString>
          <CharString index="7">
            0 98 403 98 return
          </CharString>
          <CharString index="8">
            848 -20 hstem
            return
          </CharString>
          <CharString index="9">
            rmoveto
            11 11 1 2 9 hvcurveto
            -15 -65 -44 -56 -80 -53 rrcurveto
            -65 callsubr
            vhcurveto
            return
          </CharString>
          <CharString index="10">
            rmoveto
            -103 callsubr
            -60 -35 -33 -57 -57 35 -33 60 hvcurveto
            return
          </CharString>
          <CharString index="11">
            rmoveto
            -55 callsubr
            return
          </CharString>
          <CharString index="12">
            15 65 44 56 80 53 rrcurveto
            -147 hlineto
            -45 -61 -20 -73 -97 vvcurveto
            return
          </CharString>
          <CharString index="13">
            rmoveto
            136 69 83 114 return
          </CharString>
          <CharString index="14">
            rmoveto
            564 94 -564 hlineto
            return
          </CharString>
          <CharString index="15">
            hstem
            122 506 vstem
            565 return
          </CharString>
          <CharString index="16">
            rlineto
            -87 10 -38 36 69 vvcurveto
            return
          </CharString>
          <CharString index="17">
            88 45 -134 139 hhcurveto
            return
          </CharString>
          <CharString index="18">
            -212 -66 -102 -139 return
          </CharString>
          <CharString index="19">
            0 104 592 104 hstem
            return
          </CharString>
          <CharString index="20">
            599 rmoveto
            -599 104 return
          </CharString>
          <CharString index="21">
            199 75 199 vstem
            return
          </CharString>
          <CharString index="22">
            hlineto
            -40 -203 rlineto
            return
          </CharString>
          <CharString index="23">
            199 vstem
            375 return
          </CharString>
          <CharString index="24">
            rmoveto
            hintmask 11111010
            -73 callsubr
            hintmask 11110100
            -90 callsubr
            hintmask 11111010
            -431 -203 rmoveto
            89 hlineto
            50 6 27 31 37 -90 callsubr
            -68 callsubr
            endchar
          </CharString>
          <CharString index="25">
            -16 99 433 99 hstem
            83 104 376 104 -105 callsubr
            -16 rmoveto
            176 116 126 190 189 -116 126 -176 -176 -116 -126 -189 -190 116 -126 176 hvcurveto
            -188 316 rmoveto
            134 71 82 117 117 71 -82 -134 -135 -71 -82 -117 -117 -71 82 135 vhcurveto
            endchar
          </CharString>
          <CharString index="26">
            -98 callsubr
            166 -171 rmoveto
            -71 callsubr
            -30 callsubr
          </CharString>
          <CharString index="27">
            -16 102 628 102 hstem
            63 107 410 107 -105 callsubr
            -16 rmoveto
            206 106 141 275 -51 callsubr
            -275 106 -141 206 hvcurveto
            -205 416 rmoveto
            212 66 102 139 return
          </CharString>
          <CharString index="28">
            rmoveto
            280 hlineto
            -86 -186 rlineto
            -194 -94 150 hlineto
            -72 -153 rlineto
            96 hlineto
            72 153 rlineto
            324 94 -280 hlineto
            86 186 rlineto
            194 94 -150 hlineto
            72 153 rlineto
            -96 hlineto
            -72 -153 rlineto
            -324 hlineto
            endchar
          </CharString>
          <CharString index="29">
            -93 callsubr
            202 -264 -96 callsubr
            433 vmoveto
            -55 callsubr
            endchar
          </CharString>
          <CharString index="30">
            -8 -25 callsubr
            -84 callsubr
            -8 -98 callsubr
            endchar
          </CharString>
          <CharString index="31">
            rmoveto
            hintmask 11101000
            -73 callsubr
            hintmask 11010000
            -90 callsubr
            endchar
          </CharString>
          <CharString index="32">
            -97 callsubr
            -95 525 rmoveto
            -57 35 -33 60 -103 callsubr
            -60 -35 -33 -57 vhcurveto
            endchar
          </CharString>
          <CharString index="33">
            rmoveto
            63 63 -190 190 190 190 -63 63 -190 -190 -190 190 -63 -63 190 -190 -190 -190 63 -63 190 190 rlineto
            endchar
          </CharString>
          <CharString index="34">
            -68 callsubr
            89 hlineto
            50 6 27 31 37 hhcurveto
            return
          </CharString>
          <CharString index="35">
            -94 callsubr
            -46 callsubr
            -114 -69 83 135 vhcurveto
            endchar
          </CharString>
          <CharString index="36">
            -65 callsubr
            11 11 1 2 9 vhcurveto
            return
          </CharString>
          <CharString index="37">
            rmoveto
            -160 vlineto
            504 -240 rlineto
            107 vlineto
            -447 208 rlineto
            10 vlineto
            447 208 rlineto
            107 vlineto
            endchar
          </CharString>
          <CharString index="38">
            rmoveto
            160 vlineto
            -504 240 rlineto
            -107 vlineto
            447 -208 rlineto
            -10 vlineto
            -447 -208 rlineto
            -107 vlineto
            endchar
          </CharString>
          <CharString index="39">
            86 61 65 106 12 hvcurveto
            -89 hlineto
            -50 -6 -27 -31 -37 -88 -45 134 -139 hhcurveto
            -86 -61 -65 -106 -12 hvcurveto
            return
          </CharString>
          <CharString index="40">
            rmoveto
            -117 57 -66 102 -52 callsubr
            vhcurveto
            return
          </CharString>
          <CharString index="41">
            -16 91 184 91 100 91 184 91 -43 callsubr
            return
          </CharString>
          <CharString index="42">
            147 hlineto
            45 61 20 73 97 vvcurveto
            81 -33 39 -71 -60 -35 -33 -57 -57 35 -33 60 return
          </CharString>
          <CharString index="43">
            -87 vlineto
            -151 -21 -97 -121 -173 vvcurveto
            -174 97 -119 151 -18 vhcurveto
            return
          </CharString>
          <CharString index="44">
            353 94 hstem
            93 564 vstem
            93 353 -93 callsubr
            endchar
          </CharString>
          <CharString index="45">
            rmoveto
            -47 32 -28 55 55 32 28 47 47 -32 27 -55 -55 -32 -27 -47 vhcurveto
            endchar
          </CharString>
          <CharString index="46">
            303 94 hstem
            93 564 vstem
            93 303 -93 callsubr
            endchar
          </CharString>
          <CharString index="47">
            90 44 90 32 -40 callsubr
            hintmask 11110100
            511 return
          </CharString>
          <CharString index="48">
            60 24 32 42 42 25 -32 -60 -59 -25 -33 -42 -42 -24 33 59 vhcurveto
            endchar
          </CharString>
          <CharString index="49">
            86 vlineto
            144 14 94 91 132 vvcurveto
            136 -72 71 -152 18 vhcurveto
            return
          </CharString>
          <CharString index="50">
            -86 vlineto
            -149 -14 -96 -92 -133 vvcurveto
            -136 71 -71 152 -18 vhcurveto
            return
          </CharString>
          <CharString index="51">
            rmoveto
            570 94 -570 hlineto
            -374 vmoveto
            570 94 -570 hlineto
            endchar
          </CharString>
          <CharString index="52">
            -47 32 -30 48 48 32 30 47 47 -32 31 -48 -48 -32 -31 -47 vhcurveto
            return
          </CharString>
          <CharString index="53">
            -40 callsubr
            hintmask 11010000
            511 return
          </CharString>
          <CharString index="54">
            56 -61 -108 vhcurveto
            -347 104 375 vlineto
            144 -88 96 return
          </CharString>
          <CharString index="55">
            -35 callsubr
            -102 -57 -66 -117 return
          </CharString>
          <CharString index="56">
            275 -106 141 -206 -206 -106 -141 -275 return
          </CharString>
          <CharString index="57">
            180 255 -37 callsubr
            return
          </CharString>
          <CharString index="58">
            -104 callsubr
            -36 callsubr
            return
          </CharString>
          <CharString index="59">
            -46 callsubr
            hvcurveto
            return
          </CharString>
          <CharString index="60">
            109 hlineto
            -15 143 -92 85 -154 11 rrcurveto
            return
          </CharString>
          <CharString index="61">
            114 69 -83 -136 -135 -69 -83 -114 return
          </CharString>
          <CharString index="62">
            -179 -21 184 97 437 97 -16 -20 hstemhm
            return
          </CharString>
          <CharString index="63">
            -85 callsubr
            86 hlineto
            40 203 rlineto
            return
          </CharString>
          <CharString index="64">
            hstemhm
            63 92 133 93 -12 93 133 92 return
          </CharString>
          <CharString index="65">
            hstemhm
            101 108 137 76 130 108 return
          </CharString>
          <CharString index="66">
            128 14 90 87 13 126 rrcurveto
            -101 hlineto
            return
          </CharString>
          <CharString index="67">
            90 44 90 hstemhm
            80 89 -89 590 -89 89 return
          </CharString>
          <CharString index="68">
            -16 97 -60 -21 518 97 233 -20 hstemhm
            return
          </CharString>
          <CharString index="69">
            rlineto
            -122 hlineto
            -206 -347 rlineto
            endchar
          </CharString>
          <CharString index="70">
            -25 callsubr
            190 -105 callsubr
            return
          </CharString>
          <CharString index="71">
            19 -387 rlineto
            80 hlineto
            19 387 rlineto
            return
          </CharString>
          <CharString index="72">
            102 57 66 117 117 -57 66 -102 return
          </CharString>
          <CharString index="73">
            -99 callsubr
            133 484 vstem
            return
          </CharString>
          <CharString index="74">
            640 hstem
            570 57 vstem
            627 return
          </CharString>
          <CharString index="75">
            640 hstem
            123 57 vstem
            123 return
          </CharString>
          <CharString index="76">
            -114 -69 83 135 hvcurveto
            endchar
          </CharString>
          <CharString index="77">
            -15 -65 -44 -56 -80 -53 rrcurveto
            endchar
          </CharString>
          <CharString index="78">
            201 204 rmoveto
            -110 hlineto
            return
          </CharString>
          <CharString index="79">
            42 24 -33 -59 -60 -24 -32 -42 return
          </CharString>
          <CharString index="80">
            rmoveto
            -94 604 94 vlineto
            endchar
          </CharString>
          <CharString index="81">
            397 104 -505 hlineto
            endchar
          </CharString>
          <CharString index="82">
            180 hstem
            280 return
          </CharString>
        <CharString name=".notdef">
          418 -200 72 35 49 35 24 35 49 35 63 35 25 59 23 35 25 34 39 -28 28 35 28 36 38 35 28 34 39 35 70 hstemhm
          98 77 -77 78 -78 147 -147 217 -105 35 -35 221 -151 35 -35 151 -81 81 hintmask 111111111011111100010101
          431 850 rmoveto
          -333 -1050 333 hlineto
          -256 72 rmoveto
          35 vlineto
          74 49 rlineto
          -74 35 175 -35 -34 hlineto
          -73 -49 rlineto
          107 -35 hlineto
          -175 143 rmoveto
          119 175 -119 vlineto
          -175 182 rmoveto
          119 35 -84 105 49 vlineto
          hintmask 000001100000000001000010
          -35 -24 -35 59 hlineto
          hintmask 000010110100000100000101
          105 -119 hlineto
          -175 142 rmoveto
          35 140 70 35 -105 vlineto
          -175 60 rmoveto
          hintmask 000000011011110100000101
          34 70 39 -70 35 175 -35 -70 -73 vlineto
          -105 136 rmoveto
          109 105 -73 70 -36 vlineto
          -175 137 rmoveto
          34 vlineto
          hintmask 000000000000111010000001
          70 39 -69 35 174 -35 -70 -39 70 -34 hlineto
          hintmask 000100000000000000001000
          -140 -622 rmoveto
          hintmask 000100000000000000100000
          105 49 hlineto
          hintmask 000100000000000000001000
          -105 hlineto
          hintmask 000000000001000000010000
          472 vmoveto
          hintmask 000000000001000001000000
          35 38 hlineto
          hintmask 000000000001000000010000
          -35 hlineto
          endchar
        </CharString>
        <CharString name="A">
          21 -21 276 102 361 61 hstem
          59 632 vstem
          577 hmoveto
          114 hlineto
          -225 800 rlineto
          -182 hlineto
          -225 -800 rlineto
          108 hlineto
          77 276 rlineto
          257 hlineto
          -229 102 rmoveto
          100 361 100 -361 rlineto
          endchar
        </CharString>
        <CharString name="B">
          0 104 247 100 245 104 hstemhm
          123 107 332 106 -101 106 hintmask 11110100
          399 -106 callsubr
          -276 -800 271 hlineto
          hintmask 11111000
          171 103 82 135 98 -54 61 -95 11 hvcurveto
          29 vlineto
          hintmask 11110100
          99 10 55 60 97 vvcurveto
          135 -103 82 -171 vhcurveto
          -169 -696 rmoveto
          247 164 vlineto
          hintmask 11111000
          108 60 -44 -80 -79 -60 -44 -108 hvcurveto
          -164 347 rmoveto
          245 169 vlineto
          hintmask 11110100
          109 59 -43 -79 -79 -59 -44 -109 hvcurveto
          endchar
        </CharString>
        <CharString name="C">
          -16 104 624 104 hstem
          86 -107 callsubr
          391 -16 rmoveto
          162 101 100 181 22 hvcurveto
          -105 hlineto
          -120 -19 -58 -57 -103 hhcurveto
          -133 -64 101 211 211 67 101 140 107 59 -62 -130 18 hvcurveto
          106 hlineto
          189 -21 -104 107 -165 hhcurveto
          -204 -111 -143 -273 -273 107 -143 198 hvcurveto
          endchar
        </CharString>
        <CharString name="D">
          -88 callsubr
          103 107 350 -107 callsubr
          103 hmoveto
          217 hlineto
          229 119 137 263 263 -119 137 -229 hvcurveto
          -217 hlineto
          107 -696 rmoveto
          592 110 vlineto
          158 82 -102 -194 -194 -82 -102 -158 hvcurveto
          endchar
        </CharString>
        <CharString name="E">
          0 104 249 100 243 104 hstem
          143 -107 callsubr
          143 hmoveto
          485 104 -377 249 337 100 -337 243 -26 callsubr
        </CharString>
        <CharString name="Euro">
          -16 104 193 87 84 87 173 104 hstem
          133 107 351 104 vstem
          420 -16 rmoveto
          144 91 94 166 21 hvcurveto
          -105 hlineto
          -106 -17 -48 -50 -86 hhcurveto
          -95 -57 63 130 -20 hvcurveto
          245 87 -253 32 hlineto
          18 0 17 1 17 vhcurveto
          252 87 -242 hlineto
          117 23 56 56 93 hhcurveto
          98 55 -56 -120 15 hvcurveto
          104 hlineto
          179 -16 -98 101 -158 hhcurveto
          -155 -95 -95 -182 -30 hvcurveto
          -103 -87 94 hlineto
          -1 -17 0 -17 -18 vvcurveto
          -32 -93 -87 100 vlineto
          -195 26 96 -102 158 hhcurveto
          endchar
        </CharString>
        <CharString name="F">
          21 -21 339 104 253 104 hstem
          164 -107 callsubr
          164 hmoveto
          108 339 347 104 -347 253 -26 callsubr
        </CharString>
        <CharString name="G">
          -16 101 -64 -21 293 104 315 104 hstemhm
          77 107 378 95 hintmask 10111100
          362 -16 rmoveto
          88 58 40 77 25 hvcurveto
          29 hlineto
          hintmask 01111100
          -101 95 397 -293 -104 199 vlineto
          hintmask 10111100
          -141 -16 -56 -67 -103 hhcurveto
          -136 -68 103 212 211 68 101 143 104 58 -55 -117 18 hvcurveto
          106 hlineto
          177 -22 -102 99 -162 hhcurveto
          -206 -112 -145 -271 -276 111 -140 174 hvcurveto
          endchar
        </CharString>
        <CharString name="H">
          21 -21 352 102 346 -20 hstem
          103 107 330 107 vstem
          103 -106 callsubr
          -800 107 352 330 -352 107 800 -107 -346 -330 346 vlineto
          endchar
        </CharString>
        <CharString name="I">
          -88 callsubr
          321 -107 callsubr
          123 hmoveto
          504 104 -198 592 198 104 -504 -104 198 -592 -198 hlineto
          endchar
        </CharString>
        <CharString name="J">
          -16 104 608 104 hstem
          104 106 298 107 vstem
          359 -16 rmoveto
          159 97 100 163 hvcurveto
          553 -454 -104 347 -449 vlineto
          -101 -54 -58 -95 -95 -54 58 101 vhcurveto
          103 -106 -103 vlineto
          -163 98 -100 157 vhcurveto
          endchar
        </CharString>
        <CharString name="K">
          21 -21 800 -20 hstem
          143 -107 callsubr
          143 800 rmoveto
          -800 108 349 vlineto
          311 -349 rlineto
          141 hlineto
          -352 390 370 410 rlineto
          -137 hlineto
          -333 -375 rlineto
          375 vlineto
          endchar
        </CharString>
        <CharString name="L">
          0 104 696 -20 hstem
          184 -107 callsubr
          184 hmoveto
          486 104 -378 696 -108 hlineto
          endchar
        </CharString>
        <CharString name="M">
          21 -21 272 56 396 76 hstem
          82 104 378 104 vstem
          82 hmoveto
          104 552 hlineto
          -7 172 rlineto
          9 hlineto
          110 -452 rlineto
          154 hlineto
          110 452 rlineto
          9 hlineto
          -7 -172 rlineto
          -552 104 800 -175 vlineto
          -110 -472 rlineto
          -10 hlineto
          -111 472 rlineto
          -180 hlineto
          endchar
        </CharString>
        <CharString name="N">
          0 67 666 67 hstem
          103 107 330 107 vstem
          103 hmoveto
          107 561 hlineto
          -5 172 rlineto
          10 hlineto
          237 -733 rlineto
          195 800 -107 -561 hlineto
          5 -172 rlineto
          -10 hlineto
          -237 733 rlineto
          -195 hlineto
          endchar
        </CharString>
        <CharString name="O">
          -80 callsubr
          139 66 -102 -212 -89 callsubr
          -139 -66 102 212 vhcurveto
          endchar
        </CharString>
        <CharString name="P">
          21 -21 332 101 263 104 hstem
          143 107 342 -107 callsubr
          143 hmoveto
          107 332 197 hlineto
          157 96 89 144 146 -96 89 -157 hvcurveto
          -304 hlineto
          107 -367 rmoveto
          263 201 vlineto
          88 53 -50 -82 -82 -53 -49 -88 hvcurveto
          endchar
        </CharString>
        <CharString name="Q">
          -195 -21 201 101 628 102 hstem
          63 107 186 47 177 107 -105 callsubr
          86 rmoveto
          -139 -66 102 212 212 66 102 139 139 66 -102 -212 -89 callsubr
          hvcurveto
          -312 314 rmoveto
          -266 99 -141 194 -9 vhcurveto
          -82 vlineto
          293 -118 rlineto
          102 vlineto
          -246 99 rlineto
          188 13 96 140 262 vvcurveto
          -51 callsubr
          vhcurveto
          endchar
        </CharString>
        <CharString name="R">
          21 -21 346 97 253 104 hstem
          126 108 342 -107 callsubr
          126 hmoveto
          108 346 120 hlineto
          220 -346 rlineto
          129 hlineto
          -230 348 rlineto
          132 15 79 81 126 vvcurveto
          142 -97 88 -157 vhcurveto
          -304 hlineto
          108 -357 rmoveto
          253 198 vlineto
          92 52 -46 -80 -81 -52 -46 -92 hvcurveto
          endchar
        </CharString>
        <CharString name="S">
          -16 104 256 110 258 104 hstem
          101 108 343 -107 callsubr
          201 204 rmoveto
          -110 hlineto
          -141 17 105 -79 170 hhcurveto
          166 111 95 144 136 -72 71 -152 18 hvcurveto
          -102 12 -91 callsubr
          85 67 52 110 112 64 -46 -90 12 vhcurveto
          109 hlineto
          154 -16 -106 86 -175 hhcurveto
          -172 -113 -96 -145 -136 71 -71 152 -18 hvcurveto
          102 -12 rlineto
          87 -10 39 -36 -69 vvcurveto
          -84 -65 -51 -104 -108 -62 39 77 -12 vhcurveto
          endchar
        </CharString>
        <CharString name="T">
          21 -21 696 104 hstem
          321 -107 callsubr
          321 hmoveto
          108 696 238 104 -584 -104 238 hlineto
          endchar
        </CharString>
        <CharString name="U">
          -16 104 712 -20 hstem
          93 107 350 107 vstem
          93 800 rmoveto
          -523 vlineto
          -182 107 -111 175 175 107 111 182 vhcurveto
          523 -107 -523 vlineto
          -120 -64 -69 -111 -111 -64 69 120 vhcurveto
          523 vlineto
          endchar
        </CharString>
        <CharString name="V">
          0 61 739 -20 hstem
          59 632 vstem
          173 -106 callsubr
          -114 hlineto
          225 -800 rlineto
          182 hlineto
          225 800 rlineto
          -108 hlineto
          -205 -739 rlineto
          endchar
        </CharString>
        <CharString name="W">
          0 123 -123 124 -103 -21 496 103 0 -20 221 -20 hstemhm
          26 698 hintmask 00101110
          143 -106 callsubr
          -117 hlineto
          115 -800 rlineto
          154 hlineto
          hintmask 00110110
          81 496 81 -496 rlineto
          152 hlineto
          115 800 rlineto
          -112 hlineto
          hintmask 10001110
          -83 -677 -76 476 rlineto
          -149 hlineto
          hintmask 01001110
          -77 -475 rlineto
          endchar
        </CharString>
        <CharString name="X">
          21 -21 800 -20 hstem
          57 636 vstem
          183 -106 callsubr
          -126 hlineto
          230 -414 -214 -386 rlineto
          124 hlineto
          178 331 174 -331 rlineto
          128 hlineto
          -212 386 228 414 rlineto
          -122 hlineto
          -196 -360 rlineto
          endchar
        </CharString>
        <CharString name="Y">
          21 -21 800 -20 hstem
          321 -107 callsubr
          170 -106 callsubr
          -123 hlineto
          274 -451 rlineto
          -349 108 349 vlineto
          274 451 -38 callsubr
        </CharString>
        <CharString name="Z">
          -88 callsubr
          112 62 402 62 vstem
          112 hmoveto
          526 104 -464 hlineto
          464 511 rlineto
          185 -526 -104 464 vlineto
          -464 -511 rlineto
          endchar
        </CharString>
        <CharString name="_part.multiply">
          603 -20 -92 callsubr
          97 rmoveto
          63 63 -443 443 -63 -63 rlineto
          endchar
        </CharString>
        <CharString name="a">
          -16 95 -58 -21 516 99 hstemhm
          110 108 293 104 hintmask 10111000
          74 390 rmoveto
          108 hlineto
          80 12 65 46 101 hhcurveto
          99 52 -46 -89 hvcurveto
          -10 vlineto
          -215 -32 rlineto
          -119 -19 -67 -65 -96 vvcurveto
          -108 75 -67 122 86 63 33 58 26 vhcurveto
          hintmask 01111000
          29 -75 104 400 hlineto
          137 -93 78 -162 vhcurveto
          hintmask 10111000
          -161 -109 -86 -139 -16 hvcurveto
          144 -230 rmoveto
          48 32 30 61 9 vhcurveto
          200 30 rlineto
          -21 vlineto
          -100 -80 -77 -103 -72 -38 28 53 vhcurveto
          endchar
        </CharString>
        <CharString name="ampersand">
          -16 104 624 104 hstemhm
          93 109 -39 109 127 110 hintmask 11101000
          93 201 rmoveto
          -130 89 -87 134 97 77 40 80 55 vhcurveto
          112 -127 rlineto
          151 vlineto
          -64 72 21 55 14 66 9 76 rlinecurve
          -110 hlineto
          -4 -38 -5 -35 -7 -31 -121 136 rcurveline
          64 50 55 58 96 vvcurveto
          113 -66 70 -107 vhcurveto
          hintmask 11011000
          -107 -66 -71 -115 -58 24 -57 57 -69 hvcurveto
          hintmask 11101000
          -76 -55 -75 -66 -124 vvcurveto
          109 3 rmoveto
          74 49 47 59 45 vhcurveto
          162 -183 rlineto
          -66 -36 -52 -33 -68 hhcurveto
          -68 -46 47 69 hvcurveto
          hintmask 11011000
          70 426 rmoveto
          50 25 32 39 39 24 -31 -48 -55 -32 -38 -44 -35 vhcurveto
          -3 3 rlineto
          -33 38 -15 37 47 vvcurveto
          endchar
        </CharString>
        <CharString name="approxequal">
          110 -60 callsubr
          366 -83 callsubr
        </CharString>
        <CharString name="approxequal.case">
          160 -60 callsubr
          416 -83 callsubr
        </CharString>
        <CharString name="asciicircum">
          763 53 hstem
          130 490 vstem
          130 501 rmoveto
          103 hlineto
          142 262 142 -262 rlineto
          103 hlineto
          -175 315 rlineto
          -140 hlineto
          endchar
        </CharString>
        <CharString name="asciitilde">
          238 -54 callsubr
          238 -76 callsubr
        </CharString>
        <CharString name="asciitilde.case">
          288 -54 callsubr
          288 -76 callsubr
        </CharString>
        <CharString name="asterisk">
          816 -20 hstem
          326.5 97 vstem
          318 816 rmoveto
          17 -193 -178 76 -35 -109 188 -44 -127 -145 92 -67 100 166 100 -166 92 67 -127 145 188 44 -35 109 -178 -76 17 193 rlineto
          endchar
        </CharString>
        <CharString name="at">
          -133 79 149 84 -68 68 322 84 149 82 hstemhm
          63 85 131 85 220 83 -79 79 -74 74 hintmask 1101111010000000
          401 -133 rmoveto
          68 55 13 26 40 hvcurveto
          77 vlineto
          -24 -39 -56 -13 -68 hhcurveto
          -167 -86 135 259 260 86 134 166 hvcurveto
          hintmask 1101111100000000
          121 63 -76 -148 hvcurveto
          -4 -29 vlineto
          52 -14 -36 27 -57 hhcurveto
          -112 -57 -83 -162 -162 57 -83 112 hvcurveto
          hintmask 1101111001000000
          63 39 27 52 14 hvcurveto
          hintmask 1011111001000000
          29 -63 hlineto
          hintmask 1011111010000000
          74 399 hlineto
          202 -91 104 -176 -222 -115 -162 -314 vhcurveto
          hintmask 1101111010000000
          -313 115 -160 223 vhcurveto
          -37 473 rmoveto
          107 38 54 74 74 38 -54 -107 -107 -38 -54 -74 -74 -38 54 107 vhcurveto
          endchar
        </CharString>
        <CharString name="b">
          -39 callsubr
          113 99 -99 104 361 106 hintmask 10110110
          422 -16 rmoveto
          158 104 125 190 190 -104 126 -158 -93 -64 -39 -70 -18 hvcurveto
          -30 342 -104 hlineto
          hintmask 01110110
          -848 104 93 30 vlineto
          hintmask 10110110
          -70 18 64 -39 93 hhcurveto
          hintmask 10111010
          -210 315 -72 callsubr
        </CharString>
        <CharString name="backslash">
          -34 callsubr
          133 -104 callsubr
          380 -1018 rlineto
          104 hlineto
          -380 1018 rlineto
          endchar
        </CharString>
        <CharString name="bar">
          860 -20 hstem
          330 90 vstem
          420 860 rmoveto
          -90 -920 90 hlineto
          endchar
        </CharString>
        <CharString name="braceleft">
          -155 91 888 91 hstemhm
          265 67 10 95 -75 95 hintmask 11010000
          575 824 rmoveto
          91 vlineto
          -141 -10 -92 -82 -114 vvcurveto
          hintmask 11110000
          -51 20 -51 -52 vvcurveto
          -84 -30 -37 -67 1 vhcurveto
          -110 vlineto
          hintmask 11001000
          67 1 30 -37 -84 -52 -20 -51 -51 vvcurveto
          hintmask 11010000
          -114 92 -82 141 -10 vhcurveto
          91 vlineto
          -87 8 -51 40 58 62 20 62 62 vvcurveto
          hintmask 11110000
          88 -41 46 -84 11 vhcurveto
          14 vlineto
          hintmask 11001000
          84 11 41 46 88 62 -20 62 62 vvcurveto
          hintmask 11010000
          58 51 40 87 8 vhcurveto
          endchar
        </CharString>
        <CharString name="braceright">
          -155 91 888 91 hstemhm
          293 95 -75 95 10 67 hintmask 11010000
          175 915 rmoveto
          -91 vlineto
          87 -8 51 -40 -58 -62 -20 -62 -62 vvcurveto
          hintmask 11011000
          -88 41 -46 84 -11 vhcurveto
          -14 vlineto
          hintmask 11100000
          -84 -11 -41 -46 -88 -62 20 -62 -62 vvcurveto
          hintmask 11010000
          -58 -51 -40 -87 -8 vhcurveto
          -91 vlineto
          141 10 92 82 114 vvcurveto
          hintmask 11011000
          51 -20 51 52 vvcurveto
          84 30 37 67 -1 vhcurveto
          110 vlineto
          hintmask 11100000
          -67 -1 -30 37 84 52 20 51 51 vvcurveto
          hintmask 11010000
          114 -92 82 -141 10 vhcurveto
          endchar
        </CharString>
        <CharString name="bracketleft">
          -145 89 872 89 hstemhm
          330 93 -93 245 hintmask 11010000
          575 905 rmoveto
          hintmask 11100000
          -245 -1050 hlineto
          hintmask 11010000
          245 89 hlineto
          hintmask 11100000
          -152 872 hlineto
          hintmask 11010000
          152 hlineto
          endchar
        </CharString>
        <CharString name="bracketright">
          -145 89 872 89 hstemhm
          175 245 -93 93 hintmask 11100000
          175 905 rmoveto
          -89 vlineto
          hintmask 11010000
          152 -872 hlineto
          hintmask 11100000
          -152 -89 hlineto
          hintmask 11010000
          245 1050 hlineto
          endchar
        </CharString>
        <CharString name="bullet">
          154 392 hstem
          179 392 -105 callsubr
          154 rmoveto
          125 71 71 125 125 -71 71 -125 -125 -71 -71 -125 -125 71 -71 125 hvcurveto
          endchar
        </CharString>
        <CharString name="c">
          -16 99 433 99 hstem
          100 104 vstem
          388 -16 rmoveto
          147 106 91 138 14 hvcurveto
          -101 hlineto
          -81 -13 -63 -49 -90 hhcurveto
          -114 -70 80 134 136 71 83 118 98 66 -56 -92 13 hvcurveto
          101 hlineto
          149 -12 -110 98 -153 hhcurveto
          -178 -118 -127 -191 -189 114 -124 174 hvcurveto
          endchar
        </CharString>
        <CharString name="cent">
          7 -21 626 -20 22 -20 hstemhm
          100 104 144 76 hintmask 10111000
          348 -101 rmoveto
          76 87 hlineto
          -41 callsubr
          -11 -70 -48 -46 -71 -11 rrcurveto
          428 vlineto
          81 -11 53 -53 12 -82 rrcurveto
          101 hlineto
          -11 140 -98 95 -138 11 rrcurveto
          hintmask 11011000
          85 -76 -64 callsubr
          -144 311 rmoveto
          118 53 78 91 19 vhcurveto
          -425 vlineto
          -90 16 -54 76 118 vvcurveto
          endchar
        </CharString>
        <CharString name="cent.bold">
          -101 184 -97 97 -76 -21 530 98 -98 183 hstemhm
          100 104 144 76 hintmask 00101110
          348 699 rmoveto
          hintmask 00110110
          -64 callsubr
          hintmask 10010110
          -87 76 vlineto
          hintmask 00110110
          87 vlineto
          -41 callsubr
          hintmask 01010110
          -81 -13 -63 -49 -90 hhcurveto
          -114 -70 80 134 136 71 83 118 98 66 -56 -92 13 hvcurveto
          101 hlineto
          -11 140 -98 95 -138 11 rrcurveto
          hintmask 00101110
          85 vlineto
          endchar
        </CharString>
        <CharString name="colon">
          -8 -50 callsubr
          -8 -75 callsubr
        </CharString>
        <CharString name="colon.case">
          93 -50 callsubr
          93 -75 callsubr
        </CharString>
        <CharString name="comma">
          -77 callsubr
        </CharString>
        <CharString name="copyright">
          88 64 87 63 199 63 84 64 hstem
          63 64 96 64 336 64 -105 callsubr
          88 rmoveto
          175 137 137 175 175 -137 137 -175 -175 -137 -137 -175 -175 137 -137 175 hvcurveto
          -248 312 rmoveto
          144 104 104 144 144 104 -104 -144 -144 -104 -104 -144 -144 -104 104 144 vhcurveto
          96 hmoveto
          -93 65 -68 89 75 58 51 70 6 vhcurveto
          -66 hlineto
          -34 -4 -28 -24 -41 hhcurveto
          -53 -37 40 58 62 35 39 56 45 32 -27 -43 7 hvcurveto
          66 hlineto
          79 -11 -59 54 -80 hhcurveto
          -93 -62 -66 -98 hvcurveto
          endchar
        </CharString>
        <CharString name="currency">
          140 85 250 85 43 -20 hstem
          165 85 250 85 -105 callsubr
          140 rmoveto
          44 42 14 23 34 hvcurveto
          79 -80 54 54 -80 79 rlineto
          23 34 14 42 44 vvcurveto
          44 -14 42 -23 34 vhcurveto
          80 79 -54 54 -79 -80 rlineto
          23 -34 -42 14 -44 hhcurveto
          -44 -42 -14 -23 -34 hvcurveto
          -79 80 -54 -54 80 -79 rlineto
          -23 -34 -14 -42 -44 vvcurveto
          -44 14 -42 23 -34 vhcurveto
          -80 -79 54 -54 79 80 rlineto
          -23 34 42 -14 44 hhcurveto
          -125 210 rmoveto
          69 56 56 69 69 56 -56 -69 -69 -56 -56 -69 -69 -56 56 69 vhcurveto
          endchar
        </CharString>
        <CharString name="d">
          -39 callsubr
          66 106 361 104 -99 99 hintmask 10111100
          328 -16 rmoveto
          93 64 39 70 18 hvcurveto
          hintmask 01111100
          30 -93 104 848 -104 -342 -30 hlineto
          70 -18 -64 39 -93 hhcurveto
          -158 -104 -126 -190 hvcurveto
          hintmask 10111100
          -190 104 -125 158 vhcurveto
          -156 315 -94 callsubr
          vhcurveto
          hintmask 10111010
          -48 callsubr
          hintmask 10111100
          -31 callsubr
        </CharString>
        <CharString name="divide">
          56 155 92 94 92 155 hstem
          295 160 vstem
          93 303 -78 callsubr
        </CharString>
        <CharString name="divide.case">
          106 155 92 94 92 155 hstem
          295 160 vstem
          93 353 -78 callsubr
        </CharString>
        <CharString name="dollar">
          6 -21 22 -21 828 -20 21 -20 -42 callsubr
          hintmask 01011110
          -29 callsubr
          hintmask 10011110
          16 -130 91 -78 148 -11 rrcurveto
          hintmask 01011110
          -85 76 -58 callsubr
          -14 2 rlineto
          260 vlineto
          90 -9 51 -45 11 -80 rrcurveto
          -47 callsubr
          hintmask 01101110
          85 -76 -57 callsubr
          22 -3 rlineto
          -257 vlineto
          hintmask 01011110
          -85 8 -49 38 -11 68 rrcurveto
          8 371 rmoveto
          74 51 49 86 11 vhcurveto
          -250 vlineto
          -12 1 -91 callsubr
          213 -484 rmoveto
          247 4 vlineto
          87 -10 39 -36 -69 vvcurveto
          -73 -49 -48 -81 -11 vhcurveto
          endchar
        </CharString>
        <CharString name="dollar.bold">
          -100 188 -103 103 256 110 258 103 -103 188 -42 callsubr
          hintmask 01110111
          -29 callsubr
          16 -130 91 -78 148 -11 rrcurveto
          hintmask 10110111
          -85 76 vlineto
          hintmask 01110111
          -58 callsubr
          -102 12 -91 callsubr
          85 67 52 110 112 64 -46 -90 12 vhcurveto
          -47 callsubr
          hintmask 01101111
          85 -76 vlineto
          hintmask 01110111
          -57 callsubr
          102 -12 rlineto
          87 -10 39 -36 -69 vvcurveto
          -84 -65 -51 -104 -108 -62 39 77 -12 vhcurveto
          endchar
        </CharString>
        <CharString name="dotlessi">
          -100 callsubr
          hstem
          358 104 vstem
          157 -102 callsubr
          201 -403 -201 -98 505 98 -200 501 vlineto
          endchar
        </CharString>
        <CharString name="e">
          -16 97 185 94 158 97 hstem
          102 105 vstem
          102 305 rmoveto
          -200 110 -121 180 133 104 76 124 37 vhcurveto
          -106 hlineto
          -66 -28 -61 -37 -79 hhcurveto
          -109 -65 66 119 -11 hvcurveto
          439 hlineto
          1 13 1 14 15 vvcurveto
          191 -99 116 -161 -172 -114 -124 -186 vhcurveto
          107 55 rmoveto
          99 17 65 59 97 hhcurveto
          89 56 -56 -102 15 hvcurveto
          endchar
        </CharString>
        <CharString name="eight">
          -16 104 259 102 263 104 hstemhm
          85 110 -108 110 356 110 -108 110 hintmask 11110010
          375 449 rmoveto
          -111 -69 50 81 82 69 50 111 111 69 -50 -82 -81 -69 -50 -111 hvcurveto
          -290 141 rmoveto
          -101 60 -67 97 -9 vhcurveto
          -30 vlineto
          hintmask 11101100
          -96 -8 -59 -67 -100 vvcurveto
          -139 110 -85 178 178 110 85 139 100 -59 67 -96 8 vhcurveto
          30 vlineto
          hintmask 11110010
          97 9 60 67 101 vvcurveto
          140 -110 86 -180 -180 -110 -86 -140 vhcurveto
          hintmask 11101100
          112 -372 rmoveto
          79 68 50 110 110 68 -50 -79 -80 -68 -50 -110 -110 -68 50 80 vhcurveto
          endchar
        </CharString>
        <CharString name="ellipsis">
          -8 180 hstem
          52 156 89 156 89 156 -105 callsubr
          -8 rmoveto
          49 29 33 57 57 -29 33 -49 -49 -29 -33 -57 -57 29 -33 49 hvcurveto
          -323 90 rmoveto
          -57 28 -33 50 49 29 33 57 57 -29 33 -49 -50 -28 -33 -57 vhcurveto
          490 hmoveto
          -57 29 -33 49 50 28 33 57 57 -28 33 -50 -49 -29 -33 -57 vhcurveto
          endchar
        </CharString>
        <CharString name="emdash">
          303 94 hstem
          42 666 vstem
          42 397 rmoveto
          -94 666 94 vlineto
          endchar
        </CharString>
        <CharString name="emdash.case">
          353 94 hstem
          42 666 vstem
          42 447 rmoveto
          -94 666 94 vlineto
          endchar
        </CharString>
        <CharString name="endash">
          303 94 hstem
          73 604 vstem
          73 397 -27 callsubr
        </CharString>
        <CharString name="endash.case">
          353 94 hstem
          73 604 vstem
          73 447 -27 callsubr
        </CharString>
        <CharString name="equal">
          163 -101 callsubr
          443 -56 callsubr
        </CharString>
        <CharString name="equal.case">
          213 -101 callsubr
          493 -56 callsubr
        </CharString>
        <CharString name="exclam">
          -7 149 658 -20 hstemhm
          288 174 -141 108 hintmask 11010000
          321 800 rmoveto
          -575 108 575 vlineto
          hintmask 11100000
          -141 -732 -62 callsubr
        </CharString>
        <CharString name="f">
          21 -21 501 98 166 99 hstem
          289 104 vstem
          393 hmoveto
          501 254 98 -254 60 vlineto
          70 36 36 69 64 36 -26 -49 6 vhcurveto
          106 hlineto
          111 -11 -76 63 -125 hhcurveto
          -134 -75 -74 -131 hvcurveto
          -60 -146 -98 146 -501 vlineto
          endchar
        </CharString>
        <CharString name="five">
          -16 104 257 108 -20 100 163 104 hstemhm
          134 108 317 110 hintmask 10111100
          134 -106 callsubr
          hintmask 11011100
          -455 98 vlineto
          hintmask 10111100
          54 25 60 34 73 hhcurveto
          104 65 -65 -105 -108 -65 -67 -106 -92 -65 57 94 -14 hvcurveto
          -117 hlineto
          -158 18 111 -97 159 hhcurveto
          174 107 106 173 168 -93 102 -151 hvcurveto
          hintmask 11011100
          -82 -58 -30 -50 -14 hvcurveto
          -29 243 411 104 hlineto
          endchar
        </CharString>
        <CharString name="four">
          21 -21 233 104 423 40 hstem
          76 83 288 -107 callsubr
          555 -106 callsubr
          -204 hlineto
          -275 -406 rlineto
          -161 371 -233 108 233 126 104 -126 vlineto
          -396 hmoveto
          288 423 rlineto
          -423 vlineto
          endchar
        </CharString>
        <CharString name="g">
          -216 99 149 96 390 97 -16 -20 hstemhm
          86 106 328 104 -96 96 hintmask 11101100
          624 19 rmoveto
          hintmask 11011100
          580 -104 vlineto
          hintmask 11101100
          -83 -29 vlineto
          61 -17 -59 38 -78 hhcurveto
          -152 -99 -117 -175 -175 99 -116 152 78 59 37 61 17 hvcurveto
          29 -111 hlineto
          -85 -63 -51 -102 -87 -60 36 59 -10 vhcurveto
          -112 hlineto
          -117 13 107 -77 149 hhcurveto
          162 107 93 142 hvcurveto
          -432 304 rmoveto
          121 63 74 105 vhcurveto
          hintmask 11101010
          104 64 -74 -121 -121 -64 -74 -104 hvcurveto
          hintmask 11101100
          -105 -63 74 121 hvcurveto
          endchar
        </CharString>
        <CharString name="grave">
          -99 callsubr
          217 316 vstem
          217 -104 callsubr
          217 -271 rlineto
          99 hlineto
          -179 271 rlineto
          endchar
        </CharString>
        <CharString name="greater">
          30 -33 callsubr
          270 -69 callsubr
        </CharString>
        <CharString name="greater.case">
          80 -33 callsubr
          320 -69 callsubr
        </CharString>
        <CharString name="guillemotleft">
          46 608 hstemhm
          109 58 -58 278 -11 58 -58 238 hintmask 10100000
          387 46 rmoveto
          133 vlineto
          hintmask 11010000
          -220 171 rlineto
          hintmask 10100000
          220 174 rlineto
          130 vlineto
          hintmask 11010000
          -278 -229 rlineto
          -152 vlineto
          267 2 rmoveto
          hintmask 11001000
          238 -167 rlineto
          122 vlineto
          hintmask 11010000
          -180 121 rlineto
          hintmask 11001000
          180 122 rlineto
          119 vlineto
          hintmask 11010000
          -238 -169 rlineto
          endchar
        </CharString>
        <CharString name="guillemotright">
          46 608 hstemhm
          136 238 -58 58 -11 278 -58 58 hintmask 10010000
          363 46 rmoveto
          hintmask 10101000
          278 227 rlineto
          152 vlineto
          hintmask 10010000
          -278 229 rlineto
          -130 vlineto
          hintmask 10101000
          220 -174 rlineto
          hintmask 10010000
          -220 -171 rlineto
          hintmask 11001000
          -227 -71 rmoveto
          hintmask 10101000
          238 167 rlineto
          148 vlineto
          hintmask 11001000
          -238 169 rlineto
          -119 vlineto
          hintmask 10101000
          180 -122 rlineto
          hintmask 11001000
          -180 -121 rlineto
          endchar
        </CharString>
        <CharString name="h">
          21 -21 516 99 233 -20 hstem
          123 104 309 104 vstem
          123 -104 callsubr
          -848 104 347 vlineto
          108 56 61 99 98 -53 callsubr
          -133 -84 -59 -38 -67 -20 vhcurveto
          -29 338 hlineto
          endchar
        </CharString>
        <CharString name="hyphen">
          -61 callsubr
        </CharString>
        <CharString name="hyphen.case">
          -63 callsubr
        </CharString>
        <CharString name="i">
          -100 callsubr
          92 155 hstemhm
          330 160 -132 104 hintmask 11001000
          157 -102 callsubr
          201 -403 -201 -98 505 98 -200 501 vlineto
          hintmask 11110000
          -132 169 -96 callsubr
          endchar
        </CharString>
        <CharString name="j">
          -216 95 622 98 92 155 hstemhm
          400 160 -132 104 hintmask 11001000
          146 -102 callsubr
          282 -517 vlineto
          -69 -36 -36 -69 -65 -38 26 49 -7 vhcurveto
          -102 hlineto
          -109 10 76 -61 126 hhcurveto
          134 75 72 128 hvcurveto
          615 vlineto
          hintmask 11110000
          -132 169 -96 callsubr
          endchar
        </CharString>
        <CharString name="k">
          21 -21 599 -20 269 -20 hstem
          165 104 vstem
          165 -104 callsubr
          -848 104 260 vlineto
          276 -260 rlineto
          142 hlineto
          -316 297 326 302 rlineto
          -134 hlineto
          -294 -275 rlineto
          524 vlineto
          endchar
        </CharString>
        <CharString name="l">
          0 98 652 98 hstem
          343 104 vstem
          143 -104 callsubr
          -98 200 -652 -200 -98 504 98 -200 750 vlineto
          endchar
        </CharString>
        <CharString name="less">
          30 -32 callsubr
          430 -70 callsubr
        </CharString>
        <CharString name="less.case">
          80 -32 callsubr
          480 -70 callsubr
        </CharString>
        <CharString name="m">
          21 -21 513 26 -26 28 -28 102 -16 -20 hstemhm
          82 104 139 104 139 104 hintmask 10001111
          82 -87 callsubr
          vlineto
          hintmask 10010111
          416 vlineto
          66 22 31 47 47 23 -31 -66 vhcurveto
          -416 104 416 vlineto
          66 22 31 48 47 22 -31 -66 vhcurveto
          -416 104 444 vlineto
          109 -43 62 -77 vhcurveto
          hintmask 11000111
          -57 -38 -27 -49 -13 hvcurveto
          -30 hlineto
          hintmask 10010111
          49 -19 -35 27 -47 hhcurveto
          hintmask 10101111
          -50 -33 -26 -48 -12 hvcurveto
          -32 58 hlineto
          endchar
        </CharString>
        <CharString name="minus">
          -61 callsubr
        </CharString>
        <CharString name="minus.case">
          -63 callsubr
        </CharString>
        <CharString name="multiply">
          603 -20 -92 callsubr
          97 -74 callsubr
        </CharString>
        <CharString name="multiply.case">
          147 506 -92 callsubr
          147 -74 callsubr
        </CharString>
        <CharString name="n">
          21 -21 516 99 -16 -20 hstemhm
          123 104 309 104 hintmask 10111000
          123 -87 callsubr
          347 vlineto
          hintmask 11011000
          108 55 61 99 99 -53 callsubr
          -134 -84 -58 -38 -67 -20 vhcurveto
          hintmask 10111000
          -29 89 hlineto
          endchar
        </CharString>
        <CharString name="nine">
          21 -21 292 86 334 104 hstem
          82 110 366 110 -105 callsubr
          816 rmoveto
          -175 -118 -109 -162 -147 101 -106 140 50 47 15 23 21 hvcurveto
          22 -18 -237 -312 rlineto
          134 hlineto
          211 283 rlineto
          67 90 30 78 94 vvcurveto
          162 -117 109 -176 vhcurveto
          -183 -271 rmoveto
          99 74 68 109 109 74 -68 -99 -100 -74 -67 -109 -109 -74 67 100 vhcurveto
          endchar
        </CharString>
        <CharString name="notequal">
          163 -101 callsubr
          443 -79 callsubr
        </CharString>
        <CharString name="notequal.case">
          213 -101 callsubr
          493 -79 callsubr
        </CharString>
        <CharString name="numbersign">
          21 -21 203 90 214 90 203 -20 hstem
          49 652 vstem
          385 -106 callsubr
          -86 -85 callsubr
          -156 -90 138 hlineto
          -41 -214 rlineto
          -151 -90 133 -44 callsubr
          137 -44 callsubr
          156 90 -138 hlineto
          41 214 rlineto
          151 90 -133 hlineto
          40 203 rlineto
          -86 -85 callsubr
          -137 hlineto
          -59 -304 rmoveto
          41 214 rlineto
          137 hlineto
          -41 -214 rlineto
          endchar
        </CharString>
        <CharString name="o">
          -82 callsubr
        </CharString>
        <CharString name="one">
          0 98 619 83 hstem
          363 -107 callsubr
          471 -106 callsubr
          -164 hlineto
          -194 -122 rlineto
          -128 vlineto
          250 167 rlineto
          -619 -250 -98 584 98 -226 vlineto
          endchar
        </CharString>
        <CharString name="p">
          -45 callsubr
          113 99 -99 104 361 106 hintmask 11100110
          422 615 rmoveto
          -93 -64 -39 -70 -18 hvcurveto
          hintmask 11010110
          -30 93 -104 -799 104 293 30 hlineto
          -70 18 64 -39 93 hhcurveto
          158 104 125 190 hvcurveto
          hintmask 11100110
          190 -104 126 -158 vhcurveto
          hintmask 11101010
          -210 -316 -72 callsubr
        </CharString>
        <CharString name="parenleft">
          -154 1068 hstem
          265 104 vstem
          589 820 rmoveto
          94 vlineto
          -202 -84 -122 -203 -247 vvcurveto
          1 -247 122 -203 201 -84 rrcurveto
          94 vlineto
          -140 73 -79 158 -1 209 rrcurveto
          209 79 158 141 73 vhcurveto
          endchar
        </CharString>
        <CharString name="parenright">
          -154 1068 hstem
          381 104 vstem
          161 914 rmoveto
          -94 vlineto
          141 -73 79 -158 -209 vvcurveto
          -1 -209 -79 -158 -140 -73 rrcurveto
          -94 vlineto
          201 84 122 203 1 247 rrcurveto
          247 -122 203 -202 84 vhcurveto
          endchar
        </CharString>
        <CharString name="percent">
          -66 callsubr
          hintmask 11111101
          52 132 rmoveto
          646 444 rlineto
          92 vlineto
          -646 -444 rlineto
          11 409 -67 callsubr
          92 hmoveto
          59 25 33 42 -28 callsubr
          -42 -25 32 60 vhcurveto
          hintmask 11111011
          214 -466 -67 callsubr
          93 hmoveto
          -59 callsubr
        </CharString>
        <CharString name="percent.cv01">
          -16 91 -54 -21 309 91 0 91 234 91 -16 -20 -43 callsubr
          hintmask 1010101011000000
          528 -16 rmoveto
          105 54 71 137 137 -54 71 -105 -105 -54 -71 -137 -137 54 -71 105 hvcurveto
          -465 624 rmoveto
          hintmask 0001101100000000
          -137 54 -71 105 105 54 71 137 137 -54 71 -105 vhcurveto
          hintmask 1010101011000000
          -105 -54 -71 -137 hvcurveto
          hintmask 0101101100000000
          30 -608 rmoveto
          88 hlineto
          155 340 rlineto
          -82 hlineto
          -99 268 rmoveto
          77 23 40 44 44 22 -40 -77 -78 -22 -39 -44 -44 -23 39 78 vhcurveto
          259 -148 rmoveto
          82 hlineto
          hintmask 1010010011000000
          161 340 rlineto
          -88 hlineto
          -107 -608 rmoveto
          78 22 39 44 44 23 -39 -78 -77 -23 -40 -44 -44 -22 40 77 vhcurveto
          endchar
        </CharString>
        <CharString name="percent.cv02">
          -66 callsubr
          hintmask 11111011
          528 -16 rmoveto
          -52 callsubr
          -117 57 -66 102 hvcurveto
          -465 649 rmoveto
          -117 57 -66 102 vhcurveto
          hintmask 11111101
          -35 callsubr
          hvcurveto
          hintmask 11111011
          -102 -57 -66 -117 hvcurveto
          40 -653 rmoveto
          544 723 rlineto
          117 vlineto
          -544 -723 rlineto
          52 536 rmoveto
          59 25 33 42 vhcurveto
          hintmask 11111101
          -28 callsubr
          hvcurveto
          hintmask 11111011
          -42 -25 32 60 hvcurveto
          307 -466 rmoveto
          -59 callsubr
        </CharString>
        <CharString name="period">
          -8 -37 callsubr
          -8 -97 callsubr
          endchar
        </CharString>
        <CharString name="plus">
          303 94 hstem
          328 94 vstem
          93 303 rmoveto
          235 -235 94 235 235 94 -235 235 -94 -235 -235 hlineto
          endchar
        </CharString>
        <CharString name="plus.case">
          353 94 hstem
          328 94 vstem
          93 353 rmoveto
          235 -235 94 235 235 94 -235 235 -94 -235 -235 hlineto
          endchar
        </CharString>
        <CharString name="q">
          -45 callsubr
          66 106 361 104 -99 99 hintmask 11101100
          328 615 rmoveto
          -158 -104 -126 -190 -190 104 -125 158 93 64 39 70 18 hvcurveto
          30 -293 104 hlineto
          hintmask 11011100
          799 -104 -93 -30 vlineto
          hintmask 11101100
          70 -18 -64 39 -93 hhcurveto
          -156 -316 -94 callsubr
          vhcurveto
          hintmask 11101010
          -48 callsubr
          hintmask 11101100
          -31 callsubr
        </CharString>
        <CharString name="question">
          -7 149 570 104 hstem
          264 174 104 110 vstem
          295 225 rmoveto
          108 hlineto
          -2 163 251 -12 221 vvcurveto
          135 -105 84 -171 -175 -109 -86 -154 -20 vhcurveto
          117 hlineto
          87 11 67 49 109 hhcurveto
          103 63 -44 -71 -164 -249 30 2 -238 hvcurveto
          -31 -157 -62 callsubr
        </CharString>
        <CharString name="quotedbl">
          -99 callsubr
          207.5 99 137 99 vstem
          198 -49 callsubr
          118 hmoveto
          -36 callsubr
          endchar
        </CharString>
        <CharString name="quotedblbase">
          -8 180 hstem
          130 -86 callsubr
          225 -8 -81 callsubr
        </CharString>
        <CharString name="quotedblleft">
          485 180 hstem
          147 -86 callsubr
          525 665 rmoveto
          -11 -11 -1 -2 -9 hvcurveto
          -95 callsubr
          -81 33 -39 71 -103 callsubr
          vhcurveto
          -378 -60 rmoveto
          -81 33 -39 71 -103 callsubr
          -11 -11 -1 -2 -9 vhcurveto
          -95 callsubr
          endchar
        </CharString>
        <CharString name="quotedblright">
          721 180 hstem
          130 -86 callsubr
          225 721 -81 callsubr
        </CharString>
        <CharString name="quoteleft">
          485 180 hstem
          271 -84 callsubr
          665 rmoveto
          -11 -11 -1 -2 -9 hvcurveto
          -95 callsubr
          -81 33 -39 71 -103 callsubr
          vhcurveto
          endchar
        </CharString>
        <CharString name="quoteright">
          721 180 hstem
          280 -84 callsubr
          721 -98 callsubr
          endchar
        </CharString>
        <CharString name="quotesinglbase">
          -77 callsubr
        </CharString>
        <CharString name="quotesingle">
          -99 callsubr
          325.5 99 vstem
          316 -49 callsubr
          endchar
        </CharString>
        <CharString name="r">
          -100 callsubr
          -83 13 -13 99 hstemhm
          249 104 216 109 hintmask 11001100
          101 599 rmoveto
          -98 148 -403 -127 -98 442 98 -211 223 vlineto
          hintmask 10011100
          129 40 66 80 63 33 -38 -73 vhcurveto
          -65 109 81 vlineto
          121 -61 73 -100 -69 -45 -29 -57 -21 vhcurveto
          hintmask 10101100
          -29 hlineto
          hintmask 11001100
          70 vlineto
          endchar
        </CharString>
        <CharString name="s">
          -16 99 433 99 hstemhm
          122 104 301 104 -85 104 hintmask 11110000
          223 183 rmoveto
          -105 hlineto
          -125 13 97 -74 153 hhcurveto
          158 92 70 118 98 -64 54 -138 20 hvcurveto
          -86 12 rlineto
          -82 11 -35 22 39 vvcurveto
          57 56 31 97 vhcurveto
          hintmask 11101000
          101 60 -40 -73 6 hvcurveto
          104 hlineto
          133 -8 -99 79 -162 hhcurveto
          -164 -95 -70 -119 -97 64 -54 138 -20 hvcurveto
          86 -12 rlineto
          hintmask 11110000
          82 -11 35 -22 -39 vvcurveto
          -57 -52 -31 -92 -92 -58 36 64 -10 vhcurveto
          endchar
        </CharString>
        <CharString name="section">
          -216 104 824 104 hstemhm
          131 110 -70 110 188 110 -70 110 hintmask 11100100
          497 602 rmoveto
          112 hlineto
          133 -14 -86 81 -128 hhcurveto
          hintmask 11010100
          -126 -84 -72 -107 -72 38 -47 73 -19 hvcurveto
          -29 vlineto
          hintmask 11101000
          -96 -24 -55 -63 -91 vvcurveto
          -108 82 -79 134 -21 vhcurveto
          80 -11 42 -38 -61 vvcurveto
          -51 -39 -35 -61 -65 -45 41 69 -6 vhcurveto
          -112 hlineto
          -133 14 86 -81 128 hhcurveto
          126 84 72 107 72 -38 47 -73 19 hvcurveto
          29 vlineto
          hintmask 11010100
          96 24 55 63 91 vvcurveto
          108 -82 79 -134 21 vhcurveto
          -80 11 -42 38 61 vvcurveto
          51 39 35 61 vhcurveto
          hintmask 11100100
          65 45 -41 -69 6 hvcurveto
          -256 -302 rmoveto
          65 51 40 83 83 51 -40 -65 -65 -51 -40 -83 -83 -51 40 65 vhcurveto
          endchar
        </CharString>
        <CharString name="semicolon">
          -8 180 -156 -21 432 180 hstemhm
          280 190 -190 199 hintmask 01110000
          375 427 -97 callsubr
          -108 -606 rmoveto
          hintmask 10101000
          -71 callsubr
          hintmask 01110000
          -30 callsubr
        </CharString>
        <CharString name="seven">
          21 -21 696 104 hstem
          563 76 vstem
          639 622 rmoveto
          178 -546 -104 470 vlineto
          -360 -696 rlineto
          119 hlineto
          endchar
        </CharString>
        <CharString name="six">
          -16 104 334 86 292 -20 hstem
          82 110 366 110 -105 callsubr
          -16 rmoveto
          175 118 109 162 147 -101 106 -140 -50 -47 -15 -23 -21 hvcurveto
          -22 18 237 312 rlineto
          -134 hlineto
          -211 -283 rlineto
          -67 -90 -30 -78 -94 vvcurveto
          -162 117 -109 176 vhcurveto
          -183 271 rmoveto
          100 74 67 109 109 74 -67 -100 -99 -74 -68 -109 -109 -74 68 99 vhcurveto
          endchar
        </CharString>
        <CharString name="slash">
          -34 callsubr
          617 -104 callsubr
          -104 hlineto
          -380 -1018 rlineto
          104 hlineto
          endchar
        </CharString>
        <CharString name="space">
          endchar
        </CharString>
        <CharString name="sterling">
          0 104 239 90 279 104 hstemhm
          103 38 -38 229 -180 110 -40 110 hintmask 11110010
          103 184 rmoveto
          -184 544 104 -506 vlineto
          129 35 62 67 104 vvcurveto
          11 -1 11 -2 11 vhcurveto
          178 90 hlineto
          hintmask 11100100
          -207 hlineto
          -19 44 -19 45 54 vvcurveto
          85 54 51 89 86 54 -60 -105 12 vhcurveto
          110 hlineto
          173 -13 -93 96 -156 hhcurveto
          -157 -96 -91 -149 -61 15 -44 16 -38 hvcurveto
          hintmask 11101000
          -80 -90 hlineto
          hintmask 11100010
          115 hlineto
          3 -11 1 -10 -12 vvcurveto
          hintmask 11110010
          -63 -38 -41 -81 -22 vhcurveto
          endchar
        </CharString>
        <CharString name="t">
          -16 99 418 98 hstem
          232 104 218 99 vstem
          336 753 rmoveto
          -104 -154 -148 -98 148 -303 hlineto
          -137 73 -77 131 127 78 80 144 12 vhcurveto
          -99 hlineto
          -83 -8 -39 -42 -67 hhcurveto
          -68 -36 39 76 hvcurveto
          303 296 98 -296 vlineto
          endchar
        </CharString>
        <CharString name="three">
          -16 104 262 102 260 104 hstemhm
          300 214 32 110 -106 110 hintmask 11111000
          656 213 rmoveto
          96 -54 66 -88 11 vhcurveto
          29 vlineto
          hintmask 11110100
          91 11 55 64 95 vvcurveto
          143 -104 88 -169 -178 -110 -94 -166 -18 vhcurveto
          115 hlineto
          100 15 68 56 108 hhcurveto
          101 62 -51 -82 -78 -59 -49 -96 hvcurveto
          -95 -102 95 hlineto
          hintmask 11111000
          94 57 -50 -81 -81 -63 -50 -104 -102 -64 52 94 -13 hvcurveto
          -113 hlineto
          -160 16 105 -90 171 hhcurveto
          172 105 87 142 hvcurveto
          endchar
        </CharString>
        <CharString name="two">
          0 104 608 104 hstem
          120 71 359 110 vstem
          421 369 rmoveto
          -301 -193 rlineto
          -176 524 104 -453 vlineto
          293 183 rlineto
          120 75 56 85 109 vvcurveto
          161 -102 99 -168 -170 -105 -94 -166 -19 vhcurveto
          118 hlineto
          100 14 64 56 98 hhcurveto
          99 61 -60 -96 -71 -41 -59 -88 -57 hvcurveto
          endchar
        </CharString>
        <CharString name="u">
          -16 99 -62 -21 599 -20 hstemhm
          110 104 309 104 hintmask 01111000
          627 hmoveto
          599 -104 -347 vlineto
          hintmask 10111000
          -108 -55 -61 -99 -99 -56 61 108 vhcurveto
          347 -104 -375 vlineto
          -144 88 -96 134 84 58 38 67 20 vhcurveto
          hintmask 01111000
          29 -89 hlineto
          endchar
        </CharString>
        <CharString name="underscore">
          -126 76 hstem
          90 570 vstem
          90 -50 rmoveto
          -76 570 76 vlineto
          endchar
        </CharString>
        <CharString name="uni0237">
          -216 95 622 98 hstem
          428 104 vstem
          146 -102 callsubr
          282 -517 vlineto
          -69 -36 -36 -69 -65 -38 26 49 -7 vhcurveto
          -102 hlineto
          -109 10 76 -61 126 hhcurveto
          134 75 72 128 hvcurveto
          615 vlineto
          endchar
        </CharString>
        <CharString name="uni0306.cy">
          -107 880 72 hstem
          -8 360 vstem
          87 1024 rmoveto
          -95 hlineto
          -89 8 68 -55 104 hhcurveto
          104 68 55 89 8 hvcurveto
          -95 hlineto
          -47 -4 -29 -25 -52 hhcurveto
          -52 -29 25 47 -4 hvcurveto
          endchar
        </CharString>
        <CharString name="uni0307">
          -107 692 155 hstem
          4 160 vstem
          84 692 rmoveto
          48 32 30 47 47 -32 31 -48 -48 -32 -31 -47 -47 32 -30 48 hvcurveto
          endchar
        </CharString>
        <CharString name="uni0308">
          -107 874 123 hstem
          -151 142 118 142 vstem
          -80 874 rmoveto
          44 27 23 39 38 -27 23 -44 -44 -27 -23 -38 -39 27 -23 44 hvcurveto
          189 62 rmoveto
          -39 27 -23 44 44 27 23 39 38 -27 23 -44 -44 -27 -23 -38 vhcurveto
          endchar
        </CharString>
        <CharString name="uni043D">
          21 -21 246 98 255 -20 hstem
          123 104 297 104 vstem
          123 -87 callsubr
          246 296 98 -296 255 vlineto
          297 -599 rmoveto
          104 599 -104 hlineto
          endchar
        </CharString>
        <CharString name="uni043E">
          -82 callsubr
        </CharString>
        <CharString name="uni2002">
          endchar
        </CharString>
        <CharString name="uni2003">
          endchar
        </CharString>
        <CharString name="uni20BD">
          21 -21 151 88 84 87 -87 97 276 104 hstemhm
          166 104 320 110 hintmask 11011110
          439 -106 callsubr
          -273 hlineto
          hintmask 11101110
          -390 -114 vlineto
          hintmask 11011110
          -87 114 -84 -114 -88 114 -151 104 151 206 88 -206 84 169 vlineto
          162 99 90 149 148 -99 90 -162 hvcurveto
          -169 -380 rmoveto
          276 173 vlineto
          91 56 -52 -86 -86 -56 -52 -91 hvcurveto
          endchar
        </CharString>
        <CharString name="v">
          0 40 559 -20 hstem
          73 604 vstem
          73 599 rmoveto
          214 -599 rlineto
          175 hlineto
          215 599 rlineto
          -104 hlineto
          -195 -559 -196 559 rlineto
          endchar
        </CharString>
        <CharString name="w">
          0 60 -60 61 493 45 hstemhm
          35 680 hintmask 10110000
          35 599 rmoveto
          120 -599 rlineto
          148 hlineto
          72 554 72 -554 rlineto
          148 hlineto
          120 599 rlineto
          -106 hlineto
          hintmask 01110000
          -85 -538 -66 538 rlineto
          -159 hlineto
          hintmask 10110000
          -70 -539 -84 539 rlineto
          endchar
        </CharString>
        <CharString name="x">
          21 -21 599 -20 hstem
          81 588 vstem
          93 hmoveto
          113 hlineto
          168 251 162 -251 rlineto
          121 hlineto
          -197 295 209 304 rlineto
          -113 hlineto
          -181 -269 -173 269 rlineto
          -121 hlineto
          207 -314 rlineto
          endchar
        </CharString>
        <CharString name="y">
          -216 97 169 25 524 -20 hstem
          65 623 vstem
          65 599 rmoveto
          232 -549 rlineto
          92 hlineto
          -30 -88 rlineto
          -54 -18 -25 -27 -33 hhcurveto
          -36 -22 20 44 -12 hvcurveto
          -102 hlineto
          -103 15 62 -58 99 hhcurveto
          77 56 50 99 34 hvcurveto
          234 666 rlineto
          -114 hlineto
          -177 -524 -211 524 rlineto
          endchar
        </CharString>
        <CharString name="yen">
          0 218 -87 87 84 87 411 -20 hstemhm
          321 108 hintmask 01111000
          170 -106 callsubr
          -123 hlineto
          250 -411 rlineto
          -171 -87 195 -84 -195 -87 195 hlineto
          hintmask 10111000
          -131 108 vlineto
          hintmask 01111000
          131 195 87 -195 84 195 87 -171 vlineto
          250 411 -38 callsubr
        </CharString>
        <CharString name="z">
          -100 callsubr
          hstem
          134 48 386 48 vstem
          134 -102 callsubr
          434 vlineto
          -434 -317 rlineto
          -184 482 98 -434 vlineto
          434 317 rlineto
          184 vlineto
          endchar
        </CharString>
        <CharString name="zero">
          -80 callsubr
          91 60 -44 -89 30 vhcurveto
          -383 -259 rlineto
          -2 24 -1 26 28 vvcurveto
          24 -181 rmoveto
          383 259 rlineto
          2 -24 1 -26 -28 vvcurveto
          -89 callsubr
          -91 -60 44 89 -30 vhcurveto
          endchar
        </CharString>
</ttFont>
